<svg width="42" height="42" viewBox="0 0 42 42" fill="none" xmlns="http://www.w3.org/2000/svg">
<g clip-path="url(#clip0_84_9086)">
<path d="M37.9044 16.1805L34.257 15.2607L26.2891 10.5785C25.9697 10.3908 25.6059 10.2918 25.2355 10.2918H2.80828L3.76706 10.902C3.76706 10.902 -0.330001 13.1686 0.977642 20.2295C0.977642 20.2295 -2.16064 25.1112 2.80828 25.9829H38.513C40.4309 25.9829 42 24.4138 42 22.496V20.7784C42 18.4283 40.3933 16.672 37.9044 16.1805Z" fill="#FA9325"/>
<path d="M0.977601 20.2295C0.977601 20.2295 -2.16058 25.1111 2.80824 25.9828H38.5131C41.1311 25.851 42 23.9767 42 22.1472V20.2479H0.977601C0.977601 20.2479 0.529022 17.9818 0.720581 17.5022H3.44021L3.6799 20.2479H0.977601" fill="#F78120"/>
<path d="M39.3054 16.6309L39.3455 20.2745L41.9999 20.2479C41.9999 20.2479 41.8964 17.4849 39.3054 16.6309Z" fill="#D5D6DB"/>
<path d="M0.934038 17.8943H2.93901L3.20056 19.8556H1.2391C1.2391 19.8556 0.803215 18.9621 0.934038 17.8943Z" fill="#CE412D"/>
<path d="M9.3366 31.7082C12.0438 31.7082 14.2384 29.5136 14.2384 26.8064C14.2384 24.0992 12.0438 21.9046 9.3366 21.9046C6.62942 21.9046 4.43481 24.0992 4.43481 26.8064C4.43481 29.5136 6.62942 31.7082 9.3366 31.7082Z" fill="#374151"/>
<path d="M9.33658 29.9912C11.0955 29.9912 12.5214 28.5653 12.5214 26.8064C12.5214 25.0474 11.0955 23.6215 9.33658 23.6215C7.57764 23.6215 6.15173 25.0474 6.15173 26.8064C6.15173 28.5653 7.57764 29.9912 9.33658 29.9912Z" fill="#D5D6DB"/>
<path d="M9.3366 28.326C10.1758 28.326 10.8562 27.6456 10.8562 26.8064C10.8562 25.9671 10.1758 25.2868 9.3366 25.2868C8.49735 25.2868 7.81702 25.9671 7.81702 26.8064C7.81702 27.6456 8.49735 28.326 9.3366 28.326Z" fill="#374151"/>
<path d="M31.3152 31.7082C34.0224 31.7082 36.217 29.5136 36.217 26.8064C36.217 24.0992 34.0224 21.9046 31.3152 21.9046C28.6081 21.9046 26.4135 24.0992 26.4135 26.8064C26.4135 29.5136 28.6081 31.7082 31.3152 31.7082Z" fill="#374151"/>
<path d="M31.3152 29.9912C33.0742 29.9912 34.5001 28.5653 34.5001 26.8064C34.5001 25.0474 33.0742 23.6215 31.3152 23.6215C29.5563 23.6215 28.1304 25.0474 28.1304 26.8064C28.1304 28.5653 29.5563 29.9912 31.3152 29.9912Z" fill="#D5D6DB"/>
<path d="M31.3152 28.326C32.1545 28.326 32.8348 27.6456 32.8348 26.8064C32.8348 25.9671 32.1545 25.2868 31.3152 25.2868C30.476 25.2868 29.7957 25.9671 29.7957 26.8064C29.7957 27.6456 30.476 28.326 31.3152 28.326Z" fill="#374151"/>
<path d="M3.44021 17.5022L3.20051 15.0765H1.01008C1.01008 15.0765 0.645962 16.8396 0.720676 17.5022H3.44021Z" fill="#FCD462"/>
<path d="M1.23817 15.6941H2.69918L2.88975 17.1234H1.46044C1.46044 17.1234 1.14288 16.4723 1.23817 15.6941Z" fill="#CE412D"/>
<path d="M39.8182 17.5475V19.7675H41.4637C41.4637 19.7675 41.3531 18.2475 39.8182 17.5475Z" fill="white"/>
<path d="M18.6727 11.3706H25.8786L31.6792 15.8223C31.8765 15.9738 31.7694 16.2893 31.5206 16.2893H18.6727V11.3706Z" fill="#E1E6E9"/>
<path d="M18.6727 16.2893V11.3706H25.8785L18.6727 16.2893Z" fill="white"/>
<path d="M21.9672 16.8587H18.6732V17.8923H21.9672V16.8587Z" fill="#3A556A"/>
<path d="M21.3482 17.0549H19.291V17.7004H21.3482V17.0549Z" fill="#374151"/>
</g>
<defs>
<clipPath id="clip0_84_9086">
<rect width="42" height="42" fill="white"/>
</clipPath>
</defs>
</svg>
